<mxfile host="app.diagrams.net" agent="Mozilla/5.0 (Windows NT 10.0; Win64; x64) AppleWebKit/537.36 (KHTML, like Gecko) Chrome/131.0.0.0 Safari/537.36" version="25.0.3">
  <diagram name="Страница — 1" id="ffXa_lzRBMadbG6UJyHQ">
    <mxGraphModel grid="1" page="1" gridSize="10" guides="1" tooltips="1" connect="1" arrows="1" fold="1" pageScale="1" pageWidth="827" pageHeight="1169" math="0" shadow="0">
      <root>
        <mxCell id="0" />
        <mxCell id="1" parent="0" />
        <mxCell id="JOcUQYEwfWUXrp3nyNHS-5" value="Клиенты" style="swimlane;whiteSpace=wrap;html=1;" vertex="1" parent="1">
          <mxGeometry x="20" y="40" width="230" height="510" as="geometry" />
        </mxCell>
        <mxCell id="JOcUQYEwfWUXrp3nyNHS-7" value="&lt;div&gt;&lt;span style=&quot;background-color: initial;&quot;&gt;&amp;lt;&amp;lt;web-browser&amp;gt;&amp;gt;&lt;/span&gt;&lt;/div&gt;&lt;div style=&quot;&quot;&gt;Клиент&lt;/div&gt;" style="verticalAlign=middle;align=center;spacingTop=8;spacingLeft=2;spacingRight=12;shape=cube;size=10;direction=south;fontStyle=0;html=1;whiteSpace=wrap;" vertex="1" parent="JOcUQYEwfWUXrp3nyNHS-5">
          <mxGeometry x="20" y="40" width="180" height="120" as="geometry" />
        </mxCell>
        <mxCell id="6Fhd8lOZUSx7Kjl2haRT-10" value="&lt;span style=&quot;&quot;&gt;&amp;lt;&amp;lt;web-browser&amp;gt;&amp;gt;&lt;/span&gt;&lt;div style=&quot;&quot;&gt;Разработчик&lt;/div&gt;" style="verticalAlign=middle;align=center;spacingTop=8;spacingLeft=2;spacingRight=12;shape=cube;size=10;direction=south;fontStyle=0;html=1;whiteSpace=wrap;" vertex="1" parent="JOcUQYEwfWUXrp3nyNHS-5">
          <mxGeometry x="20" y="195" width="180" height="120" as="geometry" />
        </mxCell>
        <mxCell id="6Fhd8lOZUSx7Kjl2haRT-13" value="&lt;span style=&quot;&quot;&gt;&amp;lt;&amp;lt;web-browser&amp;gt;&amp;gt;&lt;/span&gt;&lt;div style=&quot;&quot;&gt;Менеджер&lt;/div&gt;" style="verticalAlign=middle;align=center;spacingTop=8;spacingLeft=2;spacingRight=12;shape=cube;size=10;direction=south;fontStyle=0;html=1;whiteSpace=wrap;" vertex="1" parent="JOcUQYEwfWUXrp3nyNHS-5">
          <mxGeometry x="20" y="350" width="180" height="120" as="geometry" />
        </mxCell>
        <mxCell id="6Fhd8lOZUSx7Kjl2haRT-17" value="" style="endArrow=none;html=1;rounded=0;exitX=0.667;exitY=0.004;exitDx=0;exitDy=0;exitPerimeter=0;" edge="1" parent="JOcUQYEwfWUXrp3nyNHS-5" source="JOcUQYEwfWUXrp3nyNHS-7">
          <mxGeometry width="50" height="50" relative="1" as="geometry">
            <mxPoint x="220" y="130" as="sourcePoint" />
            <mxPoint x="250" y="120" as="targetPoint" />
          </mxGeometry>
        </mxCell>
        <mxCell id="6Fhd8lOZUSx7Kjl2haRT-18" value="" style="endArrow=none;html=1;rounded=0;exitX=0.667;exitY=0.004;exitDx=0;exitDy=0;exitPerimeter=0;entryX=-0.003;entryY=0.366;entryDx=0;entryDy=0;entryPerimeter=0;" edge="1" parent="JOcUQYEwfWUXrp3nyNHS-5">
          <mxGeometry width="50" height="50" relative="1" as="geometry">
            <mxPoint x="200" y="259.88" as="sourcePoint" />
            <mxPoint x="276.49" y="260.26" as="targetPoint" />
          </mxGeometry>
        </mxCell>
        <mxCell id="6Fhd8lOZUSx7Kjl2haRT-19" value="" style="endArrow=none;html=1;rounded=0;exitX=0.667;exitY=0.004;exitDx=0;exitDy=0;exitPerimeter=0;" edge="1" parent="JOcUQYEwfWUXrp3nyNHS-5">
          <mxGeometry width="50" height="50" relative="1" as="geometry">
            <mxPoint x="200" y="419.88" as="sourcePoint" />
            <mxPoint x="251" y="419.88" as="targetPoint" />
          </mxGeometry>
        </mxCell>
        <mxCell id="6Fhd8lOZUSx7Kjl2haRT-20" value="" style="endArrow=none;html=1;rounded=0;" edge="1" parent="JOcUQYEwfWUXrp3nyNHS-5">
          <mxGeometry width="50" height="50" relative="1" as="geometry">
            <mxPoint x="250" y="420" as="sourcePoint" />
            <mxPoint x="250" y="120" as="targetPoint" />
          </mxGeometry>
        </mxCell>
        <mxCell id="JOcUQYEwfWUXrp3nyNHS-6" value="Сервер" style="swimlane;whiteSpace=wrap;html=1;" vertex="1" parent="1">
          <mxGeometry x="260" y="40" width="550" height="510" as="geometry" />
        </mxCell>
        <mxCell id="JOcUQYEwfWUXrp3nyNHS-13" value="&lt;span style=&quot;&quot;&gt;&amp;lt;&amp;lt;processor&amp;gt;&amp;gt;&lt;/span&gt;&lt;div style=&quot;&quot;&gt;Сервер приложения&lt;/div&gt;" style="verticalAlign=middle;align=center;spacingTop=8;spacingLeft=2;spacingRight=12;shape=cube;size=10;direction=south;fontStyle=0;html=1;whiteSpace=wrap;" vertex="1" parent="JOcUQYEwfWUXrp3nyNHS-6">
          <mxGeometry x="37" y="210" width="180" height="120" as="geometry" />
        </mxCell>
        <mxCell id="JOcUQYEwfWUXrp3nyNHS-19" style="edgeStyle=orthogonalEdgeStyle;rounded=0;orthogonalLoop=1;jettySize=auto;html=1;entryX=0;entryY=0.5;entryDx=0;entryDy=0;endArrow=none;endFill=0;" edge="1" parent="JOcUQYEwfWUXrp3nyNHS-6">
          <mxGeometry relative="1" as="geometry">
            <mxPoint x="217" y="275" as="sourcePoint" />
            <mxPoint x="357" y="275" as="targetPoint" />
          </mxGeometry>
        </mxCell>
        <mxCell id="JOcUQYEwfWUXrp3nyNHS-16" value="&lt;span style=&quot;&quot;&gt;&amp;lt;&amp;lt;processor&amp;gt;&amp;gt;&lt;/span&gt;&lt;div style=&quot;&quot;&gt;Сервер базы данных&lt;/div&gt;" style="verticalAlign=middle;align=center;spacingTop=8;spacingLeft=2;spacingRight=12;shape=cube;size=10;direction=south;fontStyle=0;html=1;whiteSpace=wrap;" vertex="1" parent="JOcUQYEwfWUXrp3nyNHS-6">
          <mxGeometry x="357" y="210" width="180" height="120" as="geometry" />
        </mxCell>
        <mxCell id="6Fhd8lOZUSx7Kjl2haRT-1" value="&amp;lt;&amp;lt;artifact&amp;gt;&amp;gt;&lt;br&gt;&lt;b&gt;datagrip.exe&lt;/b&gt;" style="html=1;dropTarget=0;whiteSpace=wrap;" vertex="1" parent="JOcUQYEwfWUXrp3nyNHS-6">
          <mxGeometry x="357" y="400" width="180" height="90" as="geometry" />
        </mxCell>
        <mxCell id="6Fhd8lOZUSx7Kjl2haRT-2" value="" style="shape=module;jettyWidth=8;jettyHeight=4;" vertex="1" parent="6Fhd8lOZUSx7Kjl2haRT-1">
          <mxGeometry x="1" width="20" height="20" relative="1" as="geometry">
            <mxPoint x="-27" y="7" as="offset" />
          </mxGeometry>
        </mxCell>
        <mxCell id="6Fhd8lOZUSx7Kjl2haRT-3" value="&amp;lt;&amp;lt;artifact&amp;gt;&amp;gt;&lt;br&gt;&lt;b&gt;https.exe&lt;/b&gt;" style="html=1;dropTarget=0;whiteSpace=wrap;" vertex="1" parent="JOcUQYEwfWUXrp3nyNHS-6">
          <mxGeometry x="37" y="400" width="180" height="90" as="geometry" />
        </mxCell>
        <mxCell id="6Fhd8lOZUSx7Kjl2haRT-4" value="" style="shape=module;jettyWidth=8;jettyHeight=4;" vertex="1" parent="6Fhd8lOZUSx7Kjl2haRT-3">
          <mxGeometry x="1" width="20" height="20" relative="1" as="geometry">
            <mxPoint x="-27" y="7" as="offset" />
          </mxGeometry>
        </mxCell>
        <mxCell id="6Fhd8lOZUSx7Kjl2haRT-5" value="&amp;lt;&amp;lt;deploy&amp;gt;&amp;gt;" style="endArrow=open;endSize=12;dashed=1;html=1;rounded=0;entryX=0.5;entryY=1;entryDx=0;entryDy=0;exitX=0.467;exitY=-0.004;exitDx=0;exitDy=0;exitPerimeter=0;" edge="1" parent="JOcUQYEwfWUXrp3nyNHS-6" source="6Fhd8lOZUSx7Kjl2haRT-3">
          <mxGeometry width="160" relative="1" as="geometry">
            <mxPoint x="7" y="630" as="sourcePoint" />
            <mxPoint x="122" y="330" as="targetPoint" />
          </mxGeometry>
        </mxCell>
        <mxCell id="6Fhd8lOZUSx7Kjl2haRT-6" value="&amp;lt;&amp;lt;deploy&amp;gt;&amp;gt;" style="endArrow=open;endSize=12;dashed=1;html=1;rounded=0;entryX=0.5;entryY=1;entryDx=0;entryDy=0;exitX=0.467;exitY=0.022;exitDx=0;exitDy=0;exitPerimeter=0;" edge="1" parent="JOcUQYEwfWUXrp3nyNHS-6">
          <mxGeometry width="160" relative="1" as="geometry">
            <mxPoint x="441.5" y="400" as="sourcePoint" />
            <mxPoint x="442" y="330" as="targetPoint" />
          </mxGeometry>
        </mxCell>
        <mxCell id="6Fhd8lOZUSx7Kjl2haRT-7" value="&amp;lt;&amp;lt;artifact&amp;gt;&amp;gt;&lt;br&gt;&lt;b&gt;DigitalSolutions.exe&lt;/b&gt;" style="html=1;dropTarget=0;whiteSpace=wrap;" vertex="1" parent="JOcUQYEwfWUXrp3nyNHS-6">
          <mxGeometry x="37" y="50" width="180" height="90" as="geometry" />
        </mxCell>
        <mxCell id="6Fhd8lOZUSx7Kjl2haRT-8" value="" style="shape=module;jettyWidth=8;jettyHeight=4;" vertex="1" parent="6Fhd8lOZUSx7Kjl2haRT-7">
          <mxGeometry x="1" width="20" height="20" relative="1" as="geometry">
            <mxPoint x="-27" y="7" as="offset" />
          </mxGeometry>
        </mxCell>
        <mxCell id="6Fhd8lOZUSx7Kjl2haRT-9" value="&amp;lt;&amp;lt;deploy&amp;gt;&amp;gt;" style="endArrow=open;endSize=12;dashed=1;html=1;rounded=0;exitX=0.5;exitY=1;exitDx=0;exitDy=0;entryX=-0.031;entryY=0.5;entryDx=0;entryDy=0;entryPerimeter=0;" edge="1" parent="JOcUQYEwfWUXrp3nyNHS-6" source="6Fhd8lOZUSx7Kjl2haRT-7" target="JOcUQYEwfWUXrp3nyNHS-13">
          <mxGeometry width="160" relative="1" as="geometry">
            <mxPoint x="277" y="260" as="sourcePoint" />
            <mxPoint x="437" y="260" as="targetPoint" />
          </mxGeometry>
        </mxCell>
      </root>
    </mxGraphModel>
  </diagram>
</mxfile>
